<svg xmlns="http://www.w3.org/2000/svg" xmlns:xlink="http://www.w3.org/1999/xlink" width="148" height="148" viewBox="0 0 148 148">
  <defs>
    <clipPath id="clip-path">
      <rect id="Rectángulo_456797" data-name="Rectángulo 456797" width="67" height="108" transform="translate(0 -0.001)" fill="none"/>
    </clipPath>
  </defs>
  <g id="Grupo_1182602" data-name="Grupo 1182602" transform="translate(-470.711 -25764)">
    <circle id="Elipse_13664" data-name="Elipse 13664" cx="74" cy="74" r="74" transform="translate(470.711 25764)" fill="#ffc33f"/>
    <circle id="Elipse_13666" data-name="Elipse 13666" cx="57" cy="57" r="57" transform="translate(487.711 25781)" fill="#fff"/>
    <g id="Grupo_1182537" data-name="Grupo 1182537" transform="translate(511.711 25764.162)">
      <g id="Grupo_1182536" data-name="Grupo 1182536" transform="translate(0 -0.161)" clip-path="url(#clip-path)">
        <path id="Trazado_996203" data-name="Trazado 996203" d="M7.44,0H59.516a7.44,7.44,0,0,1,7.44,7.44v92.994a7.44,7.44,0,0,1-7.44,7.44H7.44A7.44,7.44,0,0,1,0,100.433V7.44A7.44,7.44,0,0,1,7.44,0" transform="translate(0 0.126)" fill="#4f4f60"/>
        <path id="Trazado_996204" data-name="Trazado 996204" d="M56.077,5.86V82.115l-1.86,1.86H5.86L4,82.115V5.86A1.861,1.861,0,0,1,5.86,4h5.58A1.861,1.861,0,0,1,13.3,5.86V7.72a3.731,3.731,0,0,0,3.72,3.72H43.057a3.731,3.731,0,0,0,3.72-3.72V5.86A1.861,1.861,0,0,1,48.637,4h5.58a1.861,1.861,0,0,1,1.86,1.86" transform="translate(3.44 3.566)" fill="#61c9e5"/>
        <path id="Trazado_996205" data-name="Trazado 996205" d="M24.193,15.03a1.674,1.674,0,0,1,3.091,0c5.537,13.932,15.193,17.957,15.193,31.164A16.458,16.458,0,0,1,25.739,62.358,16.457,16.457,0,0,1,9,46.194C9,32.987,18.656,28.962,24.193,15.03" transform="translate(7.739 12.163)" fill="#4184a9"/>
        <path id="Trazado_996206" data-name="Trazado 996206" d="M56.077,47.72V60.739a1.861,1.861,0,0,1-1.86,1.86H5.86A1.861,1.861,0,0,1,4,60.739V47.72c6.51,0,6.51-3.72,13.019-3.72s6.528,3.72,13.038,3.72S36.566,44,43.076,44s6.491,3.72,13,3.72" transform="translate(3.44 37.961)" fill="#4184a9"/>
        <path id="Trazado_996207" data-name="Trazado 996207" d="M16.72,6.72H14.86a1.86,1.86,0,1,1,0-3.72h1.86a1.86,1.86,0,1,1,0,3.72" transform="translate(11.178 2.706)" fill="#353544"/>
        <path id="Trazado_996208" data-name="Trazado 996208" d="M25.44,6.72H19.86a1.86,1.86,0,1,1,0-3.72h5.58a1.86,1.86,0,0,1,0,3.72" transform="translate(15.478 2.706)" fill="#353544"/>
        <path id="Trazado_996209" data-name="Trazado 996209" d="M18.86,22A1.861,1.861,0,0,0,17,23.86V36.879a1.86,1.86,0,1,0,3.72,0V23.86A1.861,1.861,0,0,0,18.86,22" transform="translate(14.618 19.043)" fill="#fff"/>
        <path id="Trazado_996210" data-name="Trazado 996210" d="M18.86,33A1.861,1.861,0,0,0,17,34.86v1.86a1.86,1.86,0,1,0,3.72,0V34.86A1.861,1.861,0,0,0,18.86,33" transform="translate(14.618 28.502)" fill="#fff"/>
      </g>
    </g>
  </g>
</svg>
